<svg xmlns="http://www.w3.org/2000/svg" viewBox="0 0 440 280">
  <defs>
    <linearGradient id="bodyPS" x1="0" y1="0" x2="0" y2="1">
      <stop offset="0%" stop-color="#1a1a30"/>
      <stop offset="100%" stop-color="#0d0d18"/>
    </linearGradient>
  </defs>
  <path d="
    M 50,72 C 50,28 82,16 112,16 L 148,16 C 178,16 196,24 202,40 L 202,54 C 202,64 194,70 180,70 L 82,70
    C 58,70 50,84 50,104 L 50,132 C 50,168 38,198 24,220 C 14,238 28,254 48,250 C 64,246 78,230 92,204
    L 114,160 C 126,138 146,132 166,130 L 220,128 L 274,130 C 294,132 314,138 326,160 L 348,204
    C 362,230 376,246 392,250 C 412,254 426,238 416,220 C 402,198 390,168 390,132 L 390,104
    C 390,84 382,70 358,70 L 260,70 C 246,70 238,64 238,54 L 238,40 C 244,24 262,16 292,16 L 328,16
    C 358,16 390,28 390,72 Z" fill="url(#bodyPS)" stroke="#2a2a50" stroke-width="2"/>
</svg>
