<svg xmlns="http://www.w3.org/2000/svg" viewBox="0 0 440 280">
  <defs>
    <linearGradient id="bodySwitch" x1="0" y1="0" x2="0" y2="1">
      <stop offset="0%" stop-color="#1a1a30"/>
      <stop offset="100%" stop-color="#0d0d18"/>
    </linearGradient>
  </defs>
  <path d="
    M 55,68 C 55,24 88,14 118,14 L 145,14 C 175,14 198,24 204,40 L 204,54 C 204,66 192,72 176,72 L 85,72
    C 62,72 54,86 54,106 L 54,134 C 54,170 42,200 28,222 C 18,238 32,252 50,248 C 66,244 80,228 94,202
    L 116,158 C 128,136 148,130 168,128 L 220,126 L 272,128 C 292,130 312,136 324,158 L 346,202
    C 360,228 374,244 390,248 C 408,252 422,238 412,222 C 398,200 386,170 386,134 L 386,106
    C 386,86 378,72 355,72 L 264,72 C 248,72 236,66 236,54 L 236,40 C 242,24 265,14 295,14 L 322,14
    C 352,14 385,24 385,68 Z" fill="url(#bodySwitch)" stroke="#2a2a50" stroke-width="2"/>
</svg>
