<svg xmlns="http://www.w3.org/2000/svg" viewBox="0 0 440 280">
  <defs>
    <linearGradient id="bodyXbox" x1="0" y1="0" x2="0" y2="1">
      <stop offset="0%" stop-color="#1a1a30"/>
      <stop offset="100%" stop-color="#0d0d18"/>
    </linearGradient>
  </defs>
  <path d="
    M 50,70 C 50,25 85,12 115,12 L 145,12 C 175,12 195,22 202,38 L 202,52 C 202,64 192,70 176,70 L 80,70
    C 56,70 48,84 48,104 L 48,132 C 48,168 36,198 22,222 C 12,240 26,256 46,252 C 62,248 76,232 90,205
    L 112,160 C 124,138 144,132 164,130 L 220,128 L 276,130 C 296,132 316,138 328,160 L 350,205
    C 364,232 378,248 394,252 C 414,256 428,240 418,222 C 404,198 392,168 392,132 L 392,104
    C 392,84 384,70 360,70 L 264,70 C 248,70 238,64 238,52 L 238,38 C 245,22 265,12 295,12 L 325,12
    C 355,12 390,25 390,70 Z" fill="url(#bodyXbox)" stroke="#2a2a50" stroke-width="2"/>
  <path d="M 50,70 C 50,25 85,12 115,12 L 145,12 C 175,12 195,22 202,38 L 202,52 C 202,64 192,70 176,70 L 80,70
    C 56,70 48,84 48,104 L 48,132 C 48,168 36,198 22,222 C 12,240 26,256 46,252 C 62,248 76,232 90,205
    L 112,160 C 124,138 144,132 164,130 L 220,128 L 276,130 C 296,132 316,138 328,160 L 350,205
    C 364,232 378,248 394,252 C 414,256 428,240 418,222 C 404,198 392,168 392,132 L 392,104
    C 392,84 384,70 360,70 L 264,70 C 248,70 238,64 238,52 L 238,38 C 245,22 265,12 295,12 L 325,12
    C 355,12 390,25 390,70 Z" fill="none" stroke="#4caf50" stroke-width="1" opacity="0.15"/>
</svg>
